<?xml version="1.0" encoding="utf-8"?>
<svg viewBox="0 0 190 190" xmlns="http://www.w3.org/2000/svg">
  <path d="M 29.389 52.919 L 28.719 62.53 L 28.719 62.86 C 28.399 64.273 28.239 65.796 28.239 67.43 C 28.239 69.063 27.959 70.64 27.399 72.16 C 26.846 73.68 25.992 75.027 24.839 76.199 C 23.692 77.38 22.439 77.97 21.079 77.97 C 19.719 77.97 18.476 77.5 17.349 76.559 C 16.222 75.613 15.292 74.406 14.559 72.94 C 13.832 71.467 13.186 69.71 12.619 67.669 C 12.046 65.63 11.612 63.637 11.319 61.69 C 11.019 59.75 10.769 57.703 10.569 55.55 C 10.302 52.263 10.169 49.561 10.169 47.439 C 10.169 45.327 10.206 43.59 10.279 42.23 C 10.379 39.73 10.489 37.509 10.609 35.57 C 10.736 33.623 10.809 32.133 10.829 31.099 C 10.856 30.06 10.882 29.18 10.909 28.46 C 10.936 27.747 11.009 26.863 11.129 25.81 C 11.256 24.757 11.406 23.86 11.579 23.12 C 11.752 22.373 12.016 21.592 12.369 20.779 C 12.729 19.967 13.156 19.3 13.649 18.779 C 14.789 17.613 16.066 17.029 17.479 17.029 C 18.886 17.029 20.009 17.167 20.849 17.44 C 21.696 17.712 22.409 18.067 22.989 18.5 C 23.569 18.932 24.099 19.5 24.579 20.201 C 25.066 20.907 25.462 21.592 25.769 22.259 C 26.076 22.932 26.356 23.74 26.609 24.68 C 26.929 25.867 27.249 27.56 27.569 29.759 C 28.782 38.419 29.389 46.14 29.389 52.919 Z M 54.473 41.97 L 54.543 43.27 C 54.176 45.049 53.936 48.11 53.823 52.451 C 53.709 56.797 53.493 60.297 53.173 62.95 C 52.853 65.61 52.419 67.949 51.873 69.97 C 51.333 71.983 50.463 73.66 49.263 75 C 48.063 76.333 46.726 77 45.253 77 C 43.779 77 42.573 76.733 41.633 76.199 C 40.693 75.667 39.926 74.9 39.333 73.9 C 38.739 72.9 38.246 71.822 37.853 70.669 C 37.453 69.523 37.153 68.193 36.953 66.68 C 36.613 64.034 36.443 61.241 36.443 58.3 L 36.843 38.259 C 36.843 33.88 36.536 30.257 35.923 27.39 L 35.923 25.57 C 37.129 25.57 38.086 26.04 38.793 26.98 C 39.499 27.919 39.853 28.97 39.853 30.13 L 39.853 66.91 C 39.853 68.863 40.343 70.65 41.323 72.27 C 42.296 73.89 43.736 74.699 45.643 74.699 C 47.796 74.699 49.229 68.44 49.943 55.92 L 49.943 55.59 L 49.983 55.11 C 50.629 43.676 50.953 34.423 50.953 27.349 L 50.913 26.09 C 50.913 25.497 51.049 25.05 51.323 24.75 C 51.589 24.457 52.106 24.31 52.873 24.31 C 53.646 24.31 54.216 24.52 54.583 24.939 C 54.956 25.36 55.173 25.786 55.233 26.22 C 55.293 26.653 55.323 27.24 55.323 27.98 L 54.803 35.62 Z M 138.751 45.87 L 138.601 49.689 L 138.601 53.839 C 138.601 58.868 138.377 62.257 137.931 64.01 C 137.484 65.77 137.034 67.217 136.581 68.35 C 136.121 69.49 135.571 70.507 134.931 71.4 C 133.444 73.4 131.561 75.033 129.281 76.3 L 124.091 76.3 C 122.804 76.3 122.161 72.983 122.161 66.35 L 122.381 42.41 C 122.381 37.983 122.294 33.83 122.121 29.951 C 121.701 29.451 121.491 28.86 121.491 28.18 C 121.491 27.5 121.774 26.907 122.341 26.4 C 122.914 25.893 123.601 25.64 124.401 25.64 C 125.207 25.64 125.894 26.087 126.461 26.98 C 126.834 27.127 127.387 27.263 128.121 27.39 C 128.847 27.509 129.384 27.657 129.731 27.83 C 132.551 29.143 134.757 31.463 136.351 34.79 C 137.951 38.117 138.751 41.811 138.751 45.87 Z M 69.165 68.8 L 69.315 66.199 C 69.121 65.559 68.715 59.84 68.095 49.04 C 67.475 38.24 67.141 31.653 67.095 29.279 C 64.175 29.207 62.368 28.939 61.675 28.48 C 60.981 28.02 60.635 27.543 60.635 27.05 C 60.635 26.557 60.905 26.157 61.445 25.849 C 61.991 25.536 62.525 25.38 63.045 25.38 L 73.365 26.09 L 74.585 26.05 C 76.171 26.05 76.965 26.657 76.965 27.87 C 76.965 28.49 76.705 28.99 76.185 29.37 C 75.665 29.757 75.081 29.951 74.435 29.951 L 70.945 29.43 L 70.805 30.21 C 70.805 35.002 71.225 42.189 72.065 51.77 C 72.905 61.343 73.325 68.54 73.325 73.36 C 73.325 73.98 73.095 74.513 72.635 74.96 C 72.181 75.406 71.645 75.63 71.025 75.63 L 69.315 75.63 Z M 111.104 75 L 108.244 75.029 L 104.944 75.18 C 103.53 75.18 102.59 74.723 102.124 73.809 C 102.124 73.07 102.217 72.492 102.404 72.08 C 102.584 71.673 102.97 71.47 103.564 71.47 L 105.724 71.47 L 105.874 70.47 L 105.354 54.33 L 105.754 37.4 C 105.754 34.56 105.63 31.863 105.384 29.31 C 104.324 29.31 103.34 29.31 102.434 29.31 C 101.534 29.31 100.874 29.169 100.454 28.89 C 100.034 28.604 99.824 28.063 99.824 27.27 C 99.824 26.083 101.197 25.502 103.944 25.529 L 104.204 25.529 C 110.71 25.529 113.964 26.397 113.964 28.13 C 113.964 28.403 113.814 28.873 113.514 29.54 L 109.614 29.54 C 109.814 31.393 109.914 33.57 109.914 36.07 L 109.504 50.58 L 110.064 66.72 L 110.064 68.98 C 110.064 69.427 109.977 70.11 109.804 71.029 L 113.034 71.029 C 115.107 71.029 116.144 71.66 116.144 72.919 C 116.144 73.487 115.967 73.97 115.614 74.37 C 115.254 74.763 114.85 74.96 114.404 74.96 Z M 168.881 53.36 C 168.535 54.773 168.361 56.08 168.361 57.28 C 168.361 58.48 168.515 61.04 168.821 64.961 C 169.135 68.88 169.291 71.41 169.291 72.55 C 169.291 73.682 169.085 74.546 168.671 75.14 C 168.265 75.74 167.801 76.04 167.281 76.04 C 166.541 76.04 166.071 75.529 165.871 74.51 C 165.925 72.63 165.951 70.322 165.951 67.589 C 165.951 64.857 165.735 58.853 165.301 49.58 C 164.868 40.299 164.651 33.373 164.651 28.8 C 164.651 26.4 165.491 25.201 167.171 25.201 C 169.818 25.201 172.045 25.89 173.851 27.27 C 175.658 28.657 176.561 30.637 176.561 33.21 C 176.561 36.676 176.288 39.373 175.741 41.299 C 175.201 43.233 174.175 45.646 172.661 48.54 C 172.935 49.753 173.418 52.176 174.111 55.81 C 175.571 63.677 177.218 69.352 179.051 72.839 C 179.571 73.833 179.831 74.607 179.831 75.16 C 179.831 75.72 179.675 76.19 179.361 76.57 C 179.055 76.957 178.641 77.15 178.121 77.15 C 176.461 77.15 174.938 74.39 173.551 68.87 C 172.958 66.47 172.428 64.047 171.961 61.601 C 170.628 54.893 169.775 51.12 169.401 50.279 C 169.401 50.926 169.228 51.952 168.881 53.36 Z M 82.079 72.66 L 86.089 73.22 C 87.056 73.22 87.896 72.796 88.609 71.949 C 89.329 71.11 89.862 70.059 90.209 68.8 C 90.876 66.373 91.209 64.228 91.209 62.36 C 91.209 60.493 90.899 58.644 90.279 56.81 C 89.666 54.983 88.912 53.283 88.019 51.71 C 87.126 50.137 86.222 48.533 85.309 46.9 C 83.182 43.067 82.119 39.283 82.119 35.55 C 82.119 33.277 82.502 31.259 83.269 29.5 C 84.702 26.233 86.609 24.599 88.989 24.599 C 89.876 24.599 90.722 24.887 91.529 25.46 C 92.329 26.027 92.729 26.643 92.729 27.31 C 92.729 28.477 92.112 29.06 90.879 29.06 C 90.332 29.06 89.799 28.91 89.279 28.61 C 87.672 28.682 86.586 30.477 86.019 33.99 C 85.892 34.757 85.829 35.653 85.829 36.68 C 85.829 37.707 86.052 38.973 86.499 40.48 C 86.946 41.993 87.509 43.337 88.189 44.51 C 88.869 45.682 89.599 46.983 90.379 48.41 C 91.159 49.83 91.896 51.21 92.589 52.55 C 94.142 55.637 94.919 59.174 94.919 63.16 C 94.919 66.327 94.289 69.257 93.029 71.949 C 92.362 73.337 91.416 74.47 90.189 75.35 C 88.962 76.23 87.546 76.68 85.939 76.699 L 85.939 76.89 C 84.999 76.763 84.146 76.446 83.379 75.94 C 82.612 75.432 82.179 74.773 82.079 73.96 Z M 152.956 72.99 L 155.966 72.809 C 157.899 72.809 158.866 73.427 158.866 74.66 C 158.866 75.427 158.529 75.983 157.856 76.33 C 157.189 76.677 156.436 76.85 155.596 76.85 L 148.436 76.85 C 147.789 76.85 147.239 76.628 146.786 76.18 C 146.326 75.74 146.076 75.173 146.036 74.48 C 146.003 73.787 146.053 72.919 146.186 71.88 C 146.326 70.839 146.396 70.01 146.396 69.39 L 146.026 59.67 L 146.536 37.48 L 146.136 31.06 C 146.136 27.473 147.199 25.68 149.326 25.68 C 149.919 25.68 150.476 25.863 150.996 26.23 C 151.189 26.257 151.666 26.3 152.426 26.36 C 153.179 26.426 153.839 26.509 154.406 26.61 C 154.979 26.703 155.599 26.837 156.266 27.009 C 157.699 27.41 158.416 28.092 158.416 29.06 C 158.416 30.092 157.673 30.883 156.186 31.43 C 153.859 30.637 151.943 30.153 150.436 29.98 C 150.509 31.072 150.546 32.162 150.546 33.25 L 150.216 44.16 C 150.216 44.207 150.289 44.604 150.436 45.35 C 150.436 45.35 151.339 45.311 153.146 45.23 C 155.593 45.23 156.816 45.923 156.816 47.311 C 156.816 48.057 156.599 48.714 156.166 49.279 C 155.739 49.847 155.129 50.13 154.336 50.13 C 153.543 50.13 152.849 49.91 152.256 49.47 L 150.326 49.47 C 150.473 51.396 150.546 53.227 150.546 54.96 L 150.216 68.72 C 150.216 71.567 151.129 72.99 152.956 72.99 Z M 22.339 24.13 C 22.092 23.477 21.602 22.8 20.869 22.099 C 20.142 21.393 19.439 21.04 18.759 21.04 C 18.079 21.04 17.529 21.213 17.109 21.56 C 16.682 21.907 16.322 22.426 16.029 23.12 C 15.729 23.813 15.456 24.55 15.209 25.33 C 14.962 26.104 14.759 27.053 14.599 28.18 C 14.439 29.307 14.296 30.327 14.169 31.24 C 14.049 32.16 13.952 33.25 13.879 34.509 C 13.806 35.77 13.742 36.798 13.689 37.59 C 13.642 38.383 13.612 39.337 13.599 40.451 C 13.586 41.563 13.579 42.303 13.579 42.669 L 13.579 44.23 C 13.579 48.317 13.962 52.992 14.729 58.26 C 16.262 68.628 18.426 73.809 21.219 73.809 C 22.212 73.809 23.056 72.863 23.749 70.97 C 24.442 69.077 24.926 66.707 25.199 63.86 C 25.692 59.04 25.939 55.547 25.939 53.38 C 25.939 51.214 25.932 49.66 25.919 48.72 C 25.906 47.779 25.869 46.413 25.809 44.62 C 25.742 42.827 25.636 41.146 25.489 39.58 C 25.342 38.007 25.159 36.266 24.939 34.36 C 24.712 32.453 24.409 30.759 24.029 29.279 C 23.642 27.793 23.202 26.4 22.709 25.099 C 22.709 25.099 22.586 24.777 22.339 24.13 Z M 127.171 70.62 L 127.171 72.44 L 128.541 72.44 C 131.187 69.22 132.894 66.273 133.661 63.601 C 134.381 61.107 134.741 57.62 134.741 53.14 C 134.741 37.854 132.117 29.863 126.871 29.169 C 126.504 31.169 126.321 33.803 126.321 37.07 Z M 168.771 28.02 L 168.511 29.09 C 168.511 31.169 168.561 34.169 168.661 38.09 C 168.755 42.01 168.801 44.86 168.801 46.64 C 169.995 46.027 170.955 44.413 171.681 41.799 C 172.415 39.193 172.781 37.196 172.781 35.81 C 172.781 34.423 172.741 33.403 172.661 32.75 C 172.588 32.09 172.428 31.367 172.181 30.58 C 171.715 28.919 170.578 28.067 168.771 28.02 Z" style="fill: rgb(255, 255, 255);"/>
  <path d="M 29.389 148.92 L 28.719 158.53 L 28.719 158.86 C 28.399 160.273 28.239 161.798 28.239 163.429 C 28.239 165.063 27.959 166.64 27.399 168.16 C 26.846 169.679 25.992 171.026 24.839 172.201 C 23.692 173.379 22.439 173.97 21.079 173.97 C 19.719 173.97 18.476 173.5 17.349 172.561 C 16.222 171.612 15.292 170.407 14.559 168.939 C 13.832 167.467 13.186 165.709 12.619 163.67 C 12.046 161.629 11.612 159.636 11.319 157.689 C 11.019 155.75 10.769 153.702 10.569 151.549 C 10.302 148.263 10.169 145.561 10.169 143.439 C 10.169 141.327 10.206 139.59 10.279 138.23 C 10.379 135.73 10.489 133.51 10.609 131.569 C 10.736 129.623 10.809 128.133 10.829 127.099 C 10.856 126.061 10.882 125.179 10.909 124.459 C 10.936 123.747 11.009 122.862 11.129 121.811 C 11.256 120.757 11.406 119.86 11.579 119.12 C 11.752 118.373 12.016 117.592 12.369 116.78 C 12.729 115.967 13.156 115.3 13.649 114.779 C 14.789 113.612 16.066 113.029 17.479 113.029 C 18.886 113.029 20.009 113.166 20.849 113.439 C 21.696 113.714 22.409 114.067 22.989 114.499 C 23.569 114.933 24.099 115.5 24.579 116.201 C 25.066 116.907 25.462 117.592 25.769 118.26 C 26.076 118.933 26.356 119.739 26.609 120.679 C 26.929 121.867 27.249 123.561 27.569 125.76 C 28.782 134.42 29.389 142.14 29.389 148.92 Z M 54.473 137.97 L 54.543 139.271 C 54.176 141.049 53.936 144.11 53.823 148.451 C 53.709 152.798 53.493 156.298 53.173 158.951 C 52.853 161.61 52.419 163.951 51.873 165.97 C 51.333 167.983 50.463 169.66 49.263 171 C 48.063 172.332 46.726 173 45.253 173 C 43.779 173 42.573 172.733 41.633 172.201 C 40.693 171.666 39.926 170.9 39.333 169.9 C 38.739 168.9 38.246 167.823 37.853 166.67 C 37.453 165.523 37.153 164.192 36.953 162.679 C 36.613 160.032 36.443 157.239 36.443 154.299 L 36.843 134.26 C 36.843 129.879 36.536 126.257 35.923 123.39 L 35.923 121.569 C 37.129 121.569 38.086 122.039 38.793 122.98 C 39.499 123.92 39.853 124.97 39.853 126.129 L 39.853 162.91 C 39.853 164.862 40.343 166.65 41.323 168.27 C 42.296 169.89 43.736 170.701 45.643 170.701 C 47.796 170.701 49.229 164.439 49.943 151.92 L 49.943 151.59 L 49.983 151.11 C 50.629 139.677 50.953 130.423 50.953 123.349 L 50.913 122.09 C 50.913 121.497 51.049 121.049 51.323 120.75 C 51.589 120.457 52.106 120.311 52.873 120.311 C 53.646 120.311 54.216 120.52 54.583 120.939 C 54.956 121.36 55.173 121.786 55.233 122.22 C 55.293 122.653 55.323 123.239 55.323 123.98 L 54.803 131.62 Z M 138.751 141.87 L 138.601 145.689 L 138.601 149.84 C 138.601 154.867 138.377 158.257 137.931 160.01 C 137.484 161.77 137.034 163.217 136.581 164.349 C 136.121 165.489 135.571 166.507 134.931 167.4 C 133.444 169.4 131.561 171.032 129.281 172.299 L 124.091 172.299 C 122.804 172.299 122.161 168.983 122.161 162.349 L 122.381 138.41 C 122.381 133.983 122.294 129.83 122.121 125.951 C 121.701 125.451 121.491 124.86 121.491 124.179 C 121.491 123.5 121.774 122.907 122.341 122.4 C 122.914 121.892 123.601 121.64 124.401 121.64 C 125.207 121.64 125.894 122.086 126.461 122.98 C 126.834 123.127 127.387 123.263 128.121 123.39 C 128.847 123.51 129.384 123.657 129.731 123.83 C 132.551 125.142 134.757 127.464 136.351 130.789 C 137.951 134.118 138.751 137.812 138.751 141.87 Z M 69.165 164.799 L 69.315 162.201 C 69.121 161.561 68.715 155.84 68.095 145.039 C 67.475 134.239 67.141 127.653 67.095 125.28 C 64.175 125.207 62.368 124.939 61.675 124.48 C 60.981 124.02 60.635 123.543 60.635 123.049 C 60.635 122.556 60.905 122.157 61.445 121.849 C 61.991 121.536 62.525 121.379 63.045 121.379 L 73.365 122.09 L 74.585 122.049 C 76.171 122.049 76.965 122.657 76.965 123.87 C 76.965 124.489 76.705 124.989 76.185 125.37 C 75.665 125.757 75.081 125.951 74.435 125.951 L 70.945 125.429 L 70.805 126.209 C 70.805 131.002 71.225 138.189 72.065 147.77 C 72.905 157.342 73.325 164.539 73.325 169.36 C 73.325 169.98 73.095 170.513 72.635 170.959 C 72.181 171.407 71.645 171.629 71.025 171.629 L 69.315 171.629 Z M 111.104 171 L 108.244 171.03 L 104.944 171.179 C 103.53 171.179 102.59 170.722 102.124 169.811 C 102.124 169.069 102.217 168.493 102.404 168.08 C 102.584 167.673 102.97 167.47 103.564 167.47 L 105.724 167.47 L 105.874 166.47 L 105.354 150.33 L 105.754 133.4 C 105.754 130.561 105.63 127.862 105.384 125.311 C 104.324 125.311 103.34 125.311 102.434 125.311 C 101.534 125.311 100.874 125.17 100.454 124.89 C 100.034 124.604 99.824 124.063 99.824 123.27 C 99.824 122.082 101.197 121.502 103.944 121.53 L 104.204 121.53 C 110.71 121.53 113.964 122.396 113.964 124.129 C 113.964 124.403 113.814 124.873 113.514 125.539 L 109.614 125.539 C 109.814 127.392 109.914 129.569 109.914 132.069 L 109.504 146.58 L 110.064 162.72 L 110.064 164.98 C 110.064 165.427 109.977 166.11 109.804 167.03 L 113.034 167.03 C 115.107 167.03 116.144 167.66 116.144 168.92 C 116.144 169.487 115.967 169.97 115.614 170.37 C 115.254 170.763 114.85 170.959 114.404 170.959 Z M 168.881 149.36 C 168.535 150.773 168.361 152.08 168.361 153.28 C 168.361 154.48 168.515 157.039 168.821 160.959 C 169.135 164.879 169.291 167.41 169.291 168.549 C 169.291 169.683 169.085 170.548 168.671 171.14 C 168.265 171.739 167.801 172.039 167.281 172.039 C 166.541 172.039 166.071 171.53 165.871 170.51 C 165.925 168.629 165.951 166.323 165.951 163.59 C 165.951 160.857 165.735 154.854 165.301 145.58 C 164.868 136.299 164.651 129.373 164.651 124.799 C 164.651 122.4 165.491 121.201 167.171 121.201 C 169.818 121.201 172.045 121.89 173.851 123.27 C 175.658 124.657 176.561 126.636 176.561 129.209 C 176.561 132.677 176.288 135.373 175.741 137.299 C 175.201 139.233 174.175 141.646 172.661 144.539 C 172.935 145.752 173.418 148.177 174.111 151.811 C 175.571 159.677 177.218 165.354 179.051 168.84 C 179.571 169.832 179.831 170.607 179.831 171.16 C 179.831 171.72 179.675 172.189 179.361 172.569 C 179.055 172.957 178.641 173.15 178.121 173.15 C 176.461 173.15 174.938 170.39 173.551 164.87 C 172.958 162.47 172.428 160.048 171.961 157.599 C 170.628 150.892 169.775 147.12 169.401 146.28 C 169.401 146.927 169.228 147.952 168.881 149.36 Z M 82.079 168.66 L 86.089 169.22 C 87.056 169.22 87.896 168.798 88.609 167.951 C 89.329 167.11 89.862 166.061 90.209 164.799 C 90.876 162.373 91.209 160.226 91.209 158.36 C 91.209 156.493 90.899 154.642 90.279 152.811 C 89.666 150.983 88.912 149.282 88.019 147.709 C 87.126 146.136 86.222 144.532 85.309 142.9 C 83.182 139.067 82.119 135.282 82.119 131.549 C 82.119 129.276 82.502 127.26 83.269 125.5 C 84.702 122.233 86.609 120.599 88.989 120.599 C 89.876 120.599 90.722 120.886 91.529 121.459 C 92.329 122.026 92.729 122.642 92.729 123.311 C 92.729 124.476 92.112 125.061 90.879 125.061 C 90.332 125.061 89.799 124.91 89.279 124.61 C 87.672 124.683 86.586 126.476 86.019 129.989 C 85.892 130.757 85.829 131.653 85.829 132.679 C 85.829 133.707 86.052 134.972 86.499 136.48 C 86.946 137.993 87.509 139.336 88.189 140.51 C 88.869 141.683 89.599 142.983 90.379 144.41 C 91.159 145.83 91.896 147.209 92.589 148.549 C 94.142 151.636 94.919 155.173 94.919 159.16 C 94.919 162.327 94.289 165.257 93.029 167.951 C 92.362 169.336 91.416 170.47 90.189 171.349 C 88.962 172.23 87.546 172.679 85.939 172.701 L 85.939 172.89 C 84.999 172.763 84.146 172.446 83.379 171.939 C 82.612 171.433 82.179 170.773 82.079 169.959 Z M 152.956 168.989 L 155.966 168.811 C 157.899 168.811 158.866 169.427 158.866 170.66 C 158.866 171.427 158.529 171.983 157.856 172.33 C 157.189 172.677 156.436 172.849 155.596 172.849 L 148.436 172.849 C 147.789 172.849 147.239 172.627 146.786 172.179 C 146.326 171.739 146.076 171.173 146.036 170.48 C 146.003 169.786 146.053 168.92 146.186 167.879 C 146.326 166.84 146.396 166.01 146.396 165.39 L 146.026 155.67 L 146.536 133.48 L 146.136 127.061 C 146.136 123.472 147.199 121.679 149.326 121.679 C 149.919 121.679 150.476 121.862 150.996 122.23 C 151.189 122.257 151.666 122.299 152.426 122.36 C 153.179 122.427 153.839 122.51 154.406 122.61 C 154.979 122.702 155.599 122.836 156.266 123.01 C 157.699 123.41 158.416 124.092 158.416 125.061 C 158.416 126.092 157.673 126.883 156.186 127.429 C 153.859 126.636 151.943 126.153 150.436 125.98 C 150.509 127.073 150.546 128.163 150.546 129.25 L 150.216 140.16 C 150.216 140.207 150.289 140.604 150.436 141.349 C 150.436 141.349 151.339 141.312 153.146 141.23 C 155.593 141.23 156.816 141.923 156.816 143.311 C 156.816 144.056 156.599 144.714 156.166 145.28 C 155.739 145.847 155.129 146.129 154.336 146.129 C 153.543 146.129 152.849 145.91 152.256 145.47 L 150.326 145.47 C 150.473 147.396 150.546 149.226 150.546 150.959 L 150.216 164.72 C 150.216 167.567 151.129 168.989 152.956 168.989 Z M 22.339 120.129 C 22.092 119.476 21.602 118.799 20.869 118.099 C 20.142 117.392 19.439 117.039 18.759 117.039 C 18.079 117.039 17.529 117.214 17.109 117.561 C 16.682 117.907 16.322 118.427 16.029 119.12 C 15.729 119.813 15.456 120.549 15.209 121.33 C 14.962 122.104 14.759 123.053 14.599 124.179 C 14.439 125.306 14.296 126.327 14.169 127.239 C 14.049 128.16 13.952 129.25 13.879 130.51 C 13.806 131.771 13.742 132.799 13.689 133.59 C 13.642 134.383 13.612 135.336 13.599 136.451 C 13.586 137.563 13.579 138.303 13.579 138.67 L 13.579 140.23 C 13.579 144.317 13.962 148.993 14.729 154.26 C 16.262 164.627 18.426 169.811 21.219 169.811 C 22.212 169.811 23.056 168.862 23.749 166.97 C 24.442 165.077 24.926 162.707 25.199 159.86 C 25.692 155.039 25.939 151.548 25.939 149.379 C 25.939 147.214 25.932 145.66 25.919 144.72 C 25.906 143.78 25.869 142.413 25.809 140.62 C 25.742 138.827 25.636 137.146 25.489 135.58 C 25.342 134.007 25.159 132.267 24.939 130.36 C 24.712 128.452 24.409 126.76 24.029 125.28 C 23.642 123.793 23.202 122.4 22.709 121.099 C 22.709 121.099 22.586 120.776 22.339 120.129 Z M 127.171 166.62 L 127.171 168.439 L 128.541 168.439 C 131.187 165.22 132.894 162.273 133.661 159.599 C 134.381 157.107 134.741 153.62 134.741 149.14 C 134.741 133.854 132.117 125.862 126.871 125.17 C 126.504 127.17 126.321 129.803 126.321 133.069 Z M 168.771 124.02 L 168.511 125.09 C 168.511 127.17 168.561 130.17 168.661 134.09 C 168.755 138.01 168.801 140.86 168.801 142.64 C 169.995 142.026 170.955 140.413 171.681 137.799 C 172.415 135.192 172.781 133.196 172.781 131.812 C 172.781 130.423 172.741 129.403 172.661 128.75 C 172.588 128.09 172.428 127.367 172.181 126.58 C 171.715 124.92 170.578 124.067 168.771 124.02 Z" style="fill: rgb(125, 112, 152);"/>
</svg>